<svg width="56" height="56" viewBox="0 0 56 56" fill="none" xmlns="http://www.w3.org/2000/svg">
<path d="M44.6824 0.00341797H11.3106C5.06034 0.00341797 0 5.06376 0 11.314V44.6928C0 50.9361 5.06034 55.9964 11.3106 55.9964H44.6894C50.9327 55.9964 56 50.9361 56 44.6858V11.314C55.993 5.06376 50.9327 0.00341797 44.6824 0.00341797Z" fill="url(#paint0_linear_34_10981)"/>
<path d="M27.7586 12.8679L28.8924 10.9081C29.5923 9.6832 31.1531 9.27031 32.378 9.9702C33.6029 10.6701 34.0158 12.2309 33.3159 13.4558L22.3902 32.3675H30.2922C32.8539 32.3675 34.2887 35.3771 33.1759 37.4628H10.0089C8.59507 37.4628 7.46118 36.3289 7.46118 34.9151C7.46118 33.5014 8.59507 32.3675 10.0089 32.3675H16.5041L24.8191 17.9562L22.2224 13.4488C21.5225 12.2239 21.9354 10.6771 23.1603 9.9632C24.3852 9.26331 25.932 9.6762 26.6459 10.9011L27.7586 12.8679Z" fill="white"/>
<path d="M17.9318 40.0874L15.4821 44.3359C14.7822 45.5608 13.2214 45.9736 11.9966 45.2738C10.7717 44.5739 10.3588 43.0131 11.0587 41.7882L12.8784 38.6386C14.9361 38.0017 16.6089 38.4916 17.9318 40.0874Z" fill="white"/>
<path d="M39.0272 32.3818H45.6553C47.0691 32.3818 48.203 33.5157 48.203 34.9295C48.203 36.3432 47.0691 37.4771 45.6553 37.4771H41.9737L44.4584 41.7886C45.1583 43.0135 44.7454 44.5603 43.5205 45.2742C42.2956 45.974 40.7488 45.5612 40.0349 44.3363C35.8495 37.0781 32.7068 31.6469 30.6211 28.0283C28.4864 24.3468 30.0123 20.6512 31.517 19.3984C33.1899 22.2681 35.6886 26.6006 39.0272 32.3818Z" fill="white"/>
<defs>
<linearGradient id="paint0_linear_34_10981" x1="28" y1="0.00341797" x2="28" y2="55.9964" gradientUnits="userSpaceOnUse">
<stop stop-color="#00BFFC"/>
<stop offset="1" stop-color="#0073F6"/>
</linearGradient>
</defs>
</svg>
