<svg width="28" height="28" viewBox="0 0 28 28" fill="none" xmlns="http://www.w3.org/2000/svg">
<path d="M4.66669 13.6799C4.66669 13.237 4.99587 12.8709 5.42295 12.8129L5.54169 12.8049L23.0417 12.8049C23.5249 12.8049 23.9167 13.1967 23.9167 13.6799C23.9167 14.1229 23.5875 14.489 23.1604 14.5469L23.0417 14.5549L5.54169 14.5549C5.05844 14.5549 4.66669 14.1632 4.66669 13.6799Z" fill="white"/>
<path d="M15.3662 7.2715C15.0238 6.93053 15.0226 6.37651 15.3635 6.03407C15.6735 5.72275 16.1596 5.69347 16.5026 5.94689L16.601 6.0314L23.6593 13.0594C23.9715 13.3703 23.9999 13.8581 23.7445 14.2012L23.6594 14.2994L16.601 21.3286C16.2586 21.6696 15.7046 21.6685 15.3636 21.3261C15.0536 21.0148 15.0263 20.5286 15.2812 20.1866L15.3661 20.0886L21.8015 13.6791L15.3662 7.2715Z" fill="white"/>
</svg>
