<svg width="124" height="20" viewBox="0 0 124 20" fill="none" xmlns="http://www.w3.org/2000/svg">
<path d="M36 0L39.1 6.52633L46 7.68423L41 12.7368L42.2 20L36 16.6316L29.8 20L31 12.7368L26 7.68423L32.9 6.52633L36 0Z" fill="#FFB914"/>
<path d="M62 0L65.1 6.52633L72 7.68423L67 12.7368L68.2 20L62 16.6316L55.8 20L57 12.7368L52 7.68423L58.9 6.52633L62 0Z" fill="#FFB914"/>
<path d="M88 0L91.1 6.52633L98 7.68423L93 12.7368L94.2 20L88 16.6316L81.8 20L83 12.7368L78 7.68423L84.9 6.52633L88 0Z" fill="#FFB914"/>
<path d="M114 0L117.1 6.52633L124 7.68423L119 12.7368L120.2 20L114 16.6316L107.8 20L109 12.7368L104 7.68423L110.9 6.52633L114 0Z" fill="#FFB914"/>
<path d="M10 0L13.1 6.52633L20 7.68423L15 12.7368L16.2 20L10 16.6316L3.79999 20L5 12.7368L0 7.68423L6.89999 6.52633L10 0Z" fill="#FFB914"/>
</svg>
